<svg xmlns="http://www.w3.org/2000/svg" xmlns:xlink="http://www.w3.org/1999/xlink" width="500" zoomAndPan="magnify" viewBox="0 0 375 374.999991" height="500" preserveAspectRatio="xMidYMid meet" version="1.0"><defs><g/><clipPath id="c5799b8dc1"><path d="M 125.894531 78.308594 L 248.894531 78.308594 L 248.894531 227.558594 L 125.894531 227.558594 Z M 125.894531 78.308594 " clip-rule="nonzero"/></clipPath></defs><g clip-path="url(#c5799b8dc1)"><path fill="#ffffff" d="M 205.390625 128.882812 C 206.976562 124.820312 206.183594 120.0625 202.8125 116.789062 L 186.457031 100.335938 C 185.566406 99.441406 184.179688 99.441406 183.285156 100.335938 C 182.394531 101.226562 182.394531 102.613281 183.285156 103.507812 L 192.207031 112.429688 C 193.101562 113.320312 193.101562 114.808594 192.207031 115.601562 C 191.316406 116.492188 189.929688 116.492188 189.035156 115.601562 L 180.113281 106.679688 C 179.222656 105.785156 177.835938 105.785156 176.941406 106.679688 C 176.050781 107.570312 176.050781 108.960938 176.941406 109.851562 L 185.863281 118.773438 C 186.757812 119.664062 186.757812 121.050781 185.863281 121.945312 C 185.367188 122.441406 184.871094 122.636719 184.277344 122.636719 C 183.683594 122.636719 183.089844 122.441406 182.691406 121.945312 L 173.769531 113.023438 C 172.878906 112.132812 171.492188 112.132812 170.597656 113.023438 C 170.203125 113.417969 169.90625 114.015625 169.90625 114.609375 C 169.90625 115.203125 170.105469 115.796875 170.597656 116.195312 L 187.054688 132.648438 C 190.324219 135.921875 195.082031 136.8125 199.148438 135.226562 L 232.550781 168.335938 C 232.054688 169.128906 231.558594 169.921875 230.964844 170.714844 C 229.28125 173.09375 227.398438 175.371094 225.214844 177.453125 L 187.550781 215.121094 L 150.082031 177.652344 C 139.96875 167.640625 134.519531 154.257812 134.519531 140.082031 C 134.519531 134.832031 135.3125 129.773438 136.699219 124.820312 C 136.796875 124.621094 136.796875 124.324219 136.898438 124.125 L 168.21875 154.953125 C 166.335938 160.703125 169.113281 168.929688 175.554688 175.472656 C 183.683594 183.597656 194.488281 185.878906 199.839844 180.527344 C 205.09375 175.273438 202.8125 164.371094 194.785156 156.242188 C 188.242188 149.796875 180.015625 147.023438 174.265625 148.90625 L 140.464844 115.699219 C 142.945312 110.941406 146.117188 106.480469 150.082031 102.613281 C 160.09375 92.605469 173.375 87.050781 187.550781 87.050781 C 201.722656 87.050781 215.007812 92.605469 225.117188 102.613281 C 235.128906 112.625 240.679688 126.007812 240.679688 140.183594 C 240.679688 147.121094 239.390625 153.761719 236.8125 160.007812 Z M 231.066406 96.570312 C 219.46875 84.972656 204.003906 78.527344 187.550781 78.527344 C 171.09375 78.527344 155.632812 84.972656 144.035156 96.570312 C 140.167969 100.433594 136.796875 104.796875 134.121094 109.453125 C 133.824219 109.949219 133.527344 110.445312 133.230469 111.039062 C 132.039062 113.121094 131.046875 115.304688 130.15625 117.582031 C 130.058594 117.78125 129.957031 117.980469 129.859375 118.277344 C 127.28125 125.214844 125.894531 132.550781 125.894531 140.183594 C 125.894531 156.636719 132.335938 172.101562 143.933594 183.699219 L 187.550781 227.214844 L 231.066406 183.699219 C 233.144531 181.617188 235.128906 179.335938 236.914062 176.957031 C 237.507812 176.164062 238.003906 175.472656 238.597656 174.679688 C 239.488281 173.390625 240.382812 172 241.074219 170.613281 C 241.871094 169.226562 242.5625 167.839844 243.257812 166.449219 C 247.121094 158.324219 249.105469 149.402344 249.105469 140.183594 C 249.105469 123.628906 242.761719 108.167969 231.066406 96.570312 Z M 231.066406 96.570312 " fill-opacity="1" fill-rule="nonzero"/></g><g fill="#ffffff" fill-opacity="1"><g transform="translate(75.701675, 284.491298)"><g><path d="M 12.265625 -21.296875 C 15.054688 -21.296875 17.414062 -20.75 19.34375 -19.65625 C 21.28125 -18.570312 22.25 -16.882812 22.25 -14.59375 L 14.953125 -14.59375 C 14.953125 -15.351562 14.609375 -15.894531 13.921875 -16.21875 C 13.453125 -16.476562 12.863281 -16.609375 12.15625 -16.609375 C 10.257812 -16.609375 9.3125 -16.160156 9.3125 -15.265625 C 9.3125 -14.765625 9.640625 -14.410156 10.296875 -14.203125 C 10.953125 -13.992188 12.03125 -13.769531 13.53125 -13.53125 C 15.375 -13.269531 16.910156 -12.960938 18.140625 -12.609375 C 19.378906 -12.253906 20.457031 -11.617188 21.375 -10.703125 C 22.300781 -9.796875 22.765625 -8.53125 22.765625 -6.90625 C 22.765625 -4.25 21.769531 -2.351562 19.78125 -1.21875 C 17.800781 -0.09375 15.207031 0.46875 12 0.46875 C 10.15625 0.46875 8.414062 0.210938 6.78125 -0.296875 C 5.15625 -0.804688 3.828125 -1.597656 2.796875 -2.671875 C 1.773438 -3.753906 1.265625 -5.125 1.265625 -6.78125 L 8.5625 -6.78125 L 8.5625 -6.625 C 8.582031 -5.726562 8.953125 -5.101562 9.671875 -4.75 C 10.398438 -4.394531 11.175781 -4.21875 12 -4.21875 C 14.175781 -4.21875 15.265625 -4.734375 15.265625 -5.765625 C 15.265625 -6.285156 14.921875 -6.664062 14.234375 -6.90625 C 13.554688 -7.144531 12.441406 -7.394531 10.890625 -7.65625 C 9.023438 -7.96875 7.492188 -8.304688 6.296875 -8.671875 C 5.097656 -9.046875 4.050781 -9.671875 3.15625 -10.546875 C 2.257812 -11.429688 1.8125 -12.664062 1.8125 -14.25 C 1.8125 -16.789062 2.773438 -18.597656 4.703125 -19.671875 C 6.640625 -20.753906 9.160156 -21.296875 12.265625 -21.296875 Z M 12.265625 -21.296875 "/></g></g></g><g fill="#ffffff" fill-opacity="1"><g transform="translate(99.810601, 284.491298)"><g><path d="M 13.140625 -21.296875 C 16.953125 -21.296875 19.863281 -20.398438 21.875 -18.609375 C 23.882812 -16.828125 24.890625 -14.097656 24.890625 -10.421875 L 24.890625 -9.078125 L 9.265625 -9.078125 C 9.265625 -7.578125 9.597656 -6.441406 10.265625 -5.671875 C 10.941406 -4.910156 12.003906 -4.53125 13.453125 -4.53125 C 14.765625 -4.53125 15.726562 -4.804688 16.34375 -5.359375 C 16.96875 -5.910156 17.28125 -6.648438 17.28125 -7.578125 L 24.890625 -7.578125 C 24.890625 -5.046875 23.929688 -3.070312 22.015625 -1.65625 C 20.097656 -0.238281 17.296875 0.46875 13.609375 0.46875 C 9.742188 0.46875 6.742188 -0.429688 4.609375 -2.234375 C 2.484375 -4.035156 1.421875 -6.765625 1.421875 -10.421875 C 1.421875 -13.992188 2.457031 -16.695312 4.53125 -18.53125 C 6.613281 -20.375 9.484375 -21.296875 13.140625 -21.296875 Z M 13.453125 -16.296875 C 10.984375 -16.296875 9.601562 -15.125 9.3125 -12.78125 L 16.96875 -12.78125 C 16.96875 -13.863281 16.65625 -14.71875 16.03125 -15.34375 C 15.414062 -15.976562 14.554688 -16.296875 13.453125 -16.296875 Z M 13.453125 -16.296875 "/></g></g></g><g fill="#ffffff" fill-opacity="1"><g transform="translate(126.12917, 284.491298)"><g><path d="M 15.03125 -21.34375 C 15.632812 -21.34375 16.171875 -21.269531 16.640625 -21.125 C 17.117188 -20.976562 17.359375 -20.894531 17.359375 -20.875 L 17.359375 -14.28125 L 14.828125 -14.28125 C 13.203125 -14.28125 12.023438 -13.859375 11.296875 -13.015625 C 10.578125 -12.171875 10.21875 -10.921875 10.21875 -9.265625 L 10.21875 0 L 2.359375 0 L 2.359375 -20.828125 L 8.796875 -20.828125 L 9.3125 -17.671875 C 9.78125 -18.878906 10.523438 -19.789062 11.546875 -20.40625 C 12.578125 -21.03125 13.738281 -21.34375 15.03125 -21.34375 Z M 15.03125 -21.34375 "/></g></g></g><g fill="#ffffff" fill-opacity="1"><g transform="translate(143.648585, 284.491298)"><g><path d="M 7.890625 0 L 0 -20.828125 L 8.4375 -20.828125 L 12.265625 -7.84375 L 12.546875 -7.84375 L 16.375 -20.828125 L 24.109375 -20.828125 L 16.140625 0 Z M 7.890625 0 "/></g></g></g><g fill="#ffffff" fill-opacity="1"><g transform="translate(167.757511, 284.491298)"><g><path d="M 2.640625 -23.28125 L 2.640625 -28.609375 L 10.5 -28.609375 L 10.5 -23.28125 Z M 2.640625 0 L 2.640625 -20.828125 L 10.5 -20.828125 L 10.5 0 Z M 2.640625 0 "/></g></g></g><g fill="#ffffff" fill-opacity="1"><g transform="translate(180.897077, 284.491298)"><g><path d="M 12.265625 -21.296875 C 15.054688 -21.296875 17.414062 -20.75 19.34375 -19.65625 C 21.28125 -18.570312 22.25 -16.882812 22.25 -14.59375 L 14.953125 -14.59375 C 14.953125 -15.351562 14.609375 -15.894531 13.921875 -16.21875 C 13.453125 -16.476562 12.863281 -16.609375 12.15625 -16.609375 C 10.257812 -16.609375 9.3125 -16.160156 9.3125 -15.265625 C 9.3125 -14.765625 9.640625 -14.410156 10.296875 -14.203125 C 10.953125 -13.992188 12.03125 -13.769531 13.53125 -13.53125 C 15.375 -13.269531 16.910156 -12.960938 18.140625 -12.609375 C 19.378906 -12.253906 20.457031 -11.617188 21.375 -10.703125 C 22.300781 -9.796875 22.765625 -8.53125 22.765625 -6.90625 C 22.765625 -4.25 21.769531 -2.351562 19.78125 -1.21875 C 17.800781 -0.09375 15.207031 0.46875 12 0.46875 C 10.15625 0.46875 8.414062 0.210938 6.78125 -0.296875 C 5.15625 -0.804688 3.828125 -1.597656 2.796875 -2.671875 C 1.773438 -3.753906 1.265625 -5.125 1.265625 -6.78125 L 8.5625 -6.78125 L 8.5625 -6.625 C 8.582031 -5.726562 8.953125 -5.101562 9.671875 -4.75 C 10.398438 -4.394531 11.175781 -4.21875 12 -4.21875 C 14.175781 -4.21875 15.265625 -4.734375 15.265625 -5.765625 C 15.265625 -6.285156 14.921875 -6.664062 14.234375 -6.90625 C 13.554688 -7.144531 12.441406 -7.394531 10.890625 -7.65625 C 9.023438 -7.96875 7.492188 -8.304688 6.296875 -8.671875 C 5.097656 -9.046875 4.050781 -9.671875 3.15625 -10.546875 C 2.257812 -11.429688 1.8125 -12.664062 1.8125 -14.25 C 1.8125 -16.789062 2.773438 -18.597656 4.703125 -19.671875 C 6.640625 -20.753906 9.160156 -21.296875 12.265625 -21.296875 Z M 12.265625 -21.296875 "/></g></g></g><g fill="#ffffff" fill-opacity="1"><g transform="translate(205.006003, 284.491298)"><g><path d="M 13.140625 -21.296875 C 16.953125 -21.296875 19.863281 -20.398438 21.875 -18.609375 C 23.882812 -16.828125 24.890625 -14.097656 24.890625 -10.421875 L 24.890625 -9.078125 L 9.265625 -9.078125 C 9.265625 -7.578125 9.597656 -6.441406 10.265625 -5.671875 C 10.941406 -4.910156 12.003906 -4.53125 13.453125 -4.53125 C 14.765625 -4.53125 15.726562 -4.804688 16.34375 -5.359375 C 16.96875 -5.910156 17.28125 -6.648438 17.28125 -7.578125 L 24.890625 -7.578125 C 24.890625 -5.046875 23.929688 -3.070312 22.015625 -1.65625 C 20.097656 -0.238281 17.296875 0.46875 13.609375 0.46875 C 9.742188 0.46875 6.742188 -0.429688 4.609375 -2.234375 C 2.484375 -4.035156 1.421875 -6.765625 1.421875 -10.421875 C 1.421875 -13.992188 2.457031 -16.695312 4.53125 -18.53125 C 6.613281 -20.375 9.484375 -21.296875 13.140625 -21.296875 Z M 13.453125 -16.296875 C 10.984375 -16.296875 9.601562 -15.125 9.3125 -12.78125 L 16.96875 -12.78125 C 16.96875 -13.863281 16.65625 -14.71875 16.03125 -15.34375 C 15.414062 -15.976562 14.554688 -16.296875 13.453125 -16.296875 Z M 13.453125 -16.296875 "/></g></g></g><g fill="#ffffff" fill-opacity="1"><g transform="translate(231.324572, 284.491298)"><g><path d="M 15.03125 -21.34375 C 15.632812 -21.34375 16.171875 -21.269531 16.640625 -21.125 C 17.117188 -20.976562 17.359375 -20.894531 17.359375 -20.875 L 17.359375 -14.28125 L 14.828125 -14.28125 C 13.203125 -14.28125 12.023438 -13.859375 11.296875 -13.015625 C 10.578125 -12.171875 10.21875 -10.921875 10.21875 -9.265625 L 10.21875 0 L 2.359375 0 L 2.359375 -20.828125 L 8.796875 -20.828125 L 9.3125 -17.671875 C 9.78125 -18.878906 10.523438 -19.789062 11.546875 -20.40625 C 12.578125 -21.03125 13.738281 -21.34375 15.03125 -21.34375 Z M 15.03125 -21.34375 "/></g></g></g><g fill="#ffffff" fill-opacity="1"><g transform="translate(248.843987, 284.491298)"><g><path d="M 7.890625 0 L 0 -20.828125 L 8.4375 -20.828125 L 12.265625 -7.84375 L 12.546875 -7.84375 L 16.375 -20.828125 L 24.109375 -20.828125 L 16.140625 0 Z M 7.890625 0 "/></g></g></g><g fill="#ffffff" fill-opacity="1"><g transform="translate(272.952913, 284.491298)"><g><path d="M 13.140625 -21.296875 C 16.953125 -21.296875 19.863281 -20.398438 21.875 -18.609375 C 23.882812 -16.828125 24.890625 -14.097656 24.890625 -10.421875 L 24.890625 -9.078125 L 9.265625 -9.078125 C 9.265625 -7.578125 9.597656 -6.441406 10.265625 -5.671875 C 10.941406 -4.910156 12.003906 -4.53125 13.453125 -4.53125 C 14.765625 -4.53125 15.726562 -4.804688 16.34375 -5.359375 C 16.96875 -5.910156 17.28125 -6.648438 17.28125 -7.578125 L 24.890625 -7.578125 C 24.890625 -5.046875 23.929688 -3.070312 22.015625 -1.65625 C 20.097656 -0.238281 17.296875 0.46875 13.609375 0.46875 C 9.742188 0.46875 6.742188 -0.429688 4.609375 -2.234375 C 2.484375 -4.035156 1.421875 -6.765625 1.421875 -10.421875 C 1.421875 -13.992188 2.457031 -16.695312 4.53125 -18.53125 C 6.613281 -20.375 9.484375 -21.296875 13.140625 -21.296875 Z M 13.453125 -16.296875 C 10.984375 -16.296875 9.601562 -15.125 9.3125 -12.78125 L 16.96875 -12.78125 C 16.96875 -13.863281 16.65625 -14.71875 16.03125 -15.34375 C 15.414062 -15.976562 14.554688 -16.296875 13.453125 -16.296875 Z M 13.453125 -16.296875 "/></g></g></g></svg>