<svg xmlns="http://www.w3.org/2000/svg" xmlns:xlink="http://www.w3.org/1999/xlink" width="500" zoomAndPan="magnify" viewBox="0 0 375 374.999991" height="500" preserveAspectRatio="xMidYMid meet" version="1.0"><defs><clipPath id="025000a712"><path d="M 103.351562 216 L 364.351562 216 L 364.351562 270.433594 L 103.351562 270.433594 Z M 103.351562 216 " clip-rule="nonzero"/></clipPath><clipPath id="af7addff4b"><path d="M 10.640625 121 L 271.640625 121 L 271.640625 186 L 10.640625 186 Z M 10.640625 121 " clip-rule="nonzero"/></clipPath><clipPath id="59bb72ca98"><path d="M 39.5625 65.5625 L 335.828125 65.5625 L 335.828125 309.4375 L 39.5625 309.4375 Z M 39.5625 65.5625 " clip-rule="nonzero"/></clipPath><clipPath id="b612f2f346"><path d="M 74.253906 65.5625 L 300.746094 65.5625 C 319.90625 65.5625 335.4375 81.097656 335.4375 100.257812 L 335.4375 274.742188 C 335.4375 293.902344 319.90625 309.4375 300.746094 309.4375 L 74.253906 309.4375 C 55.09375 309.4375 39.5625 293.902344 39.5625 274.742188 L 39.5625 100.257812 C 39.5625 81.097656 55.09375 65.5625 74.253906 65.5625 Z M 74.253906 65.5625 " clip-rule="nonzero"/></clipPath><clipPath id="bec1b6eca7"><path d="M 148.136719 202 L 358 202 L 358 259 L 148.136719 259 Z M 148.136719 202 " clip-rule="nonzero"/></clipPath><clipPath id="3187f748f8"><path d="M 22 131.246094 L 227 131.246094 L 227 186 L 22 186 Z M 22 131.246094 " clip-rule="nonzero"/></clipPath><clipPath id="a87e4ea465"><path d="M 150 133 L 227 133 L 227 187.332031 L 150 187.332031 Z M 150 133 " clip-rule="nonzero"/></clipPath></defs><g clip-path="url(#025000a712)"><path fill="#5dbbff" d="M 211.730469 233.976562 C 207.539062 233.976562 203.410156 232.953125 199.710938 231.027344 L 188.59375 221.976562 C 183.777344 218.042969 177.675781 216.015625 171.460938 216.230469 L 106.320312 222.015625 C 104.667969 222.074219 103.351562 223.433594 103.351562 225.027344 C 103.351562 226.621094 104.667969 227.878906 106.320312 227.820312 L 164.199219 225.007812 C 166.484375 224.929688 168.351562 226.582031 168.351562 228.683594 C 168.351562 230.789062 166.484375 232.523438 164.199219 232.5625 L 106.320312 234.214844 C 104.667969 234.234375 103.351562 235.550781 103.351562 237.144531 C 103.351562 238.738281 104.667969 240.015625 106.320312 240.015625 L 164.199219 239.425781 C 166.484375 239.40625 168.351562 241.097656 168.351562 243.203125 C 168.351562 245.308594 166.484375 247 164.199219 246.980469 L 106.320312 246.390625 C 104.667969 246.410156 103.351562 247.691406 103.351562 249.285156 C 103.351562 250.878906 104.667969 252.195312 106.320312 252.234375 L 164.199219 253.886719 C 166.484375 253.925781 168.351562 255.65625 168.351562 257.761719 C 168.351562 259.867188 166.484375 261.519531 164.199219 261.441406 L 106.320312 258.628906 C 104.667969 258.570312 103.351562 259.828125 103.351562 261.421875 C 103.351562 263.015625 104.667969 264.371094 106.320312 264.433594 L 171.460938 270.214844 C 177.675781 270.433594 183.753906 268.386719 188.59375 264.472656 L 199.710938 255.421875 C 203.429688 253.472656 207.539062 252.46875 211.730469 252.46875 C 211.730469 252.46875 273.917969 248.261719 333.941406 256.226562 C 333.941406 256.226562 364.082031 262.386719 364.082031 243.242188 C 364.082031 224.101562 333.941406 230.257812 333.941406 230.257812 C 273.917969 238.1875 211.730469 233.976562 211.730469 233.976562 Z M 211.730469 233.976562 " fill-opacity="1" fill-rule="nonzero"/></g><g clip-path="url(#af7addff4b)"><path fill="#5dbbff" d="M 177.878906 162.164062 C 182.976562 170.445312 189.757812 187.457031 219.46875 184.75 C 248.132812 182.132812 270.679688 169.226562 271.601562 154.800781 C 271.605469 154.984375 271.621094 155.164062 271.621094 155.347656 C 271.621094 155.195312 271.625 155.046875 271.621094 154.898438 C 271.632812 154.625 271.621094 154.355469 271.621094 154.085938 C 271.621094 153.796875 271.632812 153.511719 271.621094 153.226562 C 271.632812 152.972656 271.621094 152.726562 271.621094 152.480469 C 271.621094 152.214844 271.632812 151.953125 271.621094 151.691406 C 271.632812 151.460938 271.621094 151.230469 271.621094 151.003906 C 271.621094 151.203125 271.597656 151.402344 271.585938 151.601562 C 270.53125 137.964844 248.039062 124.125 219.46875 121.675781 C 189.757812 119.128906 183.496094 135.484375 177.878906 142.894531 C 173.726562 148.367188 165.003906 147.84375 165.003906 147.84375 C 165.003906 147.84375 157.816406 147.46875 142.503906 146.289062 C 127.839844 145.164062 51.101562 138.695312 37.175781 138.695312 C 24.09375 138.695312 11.898438 137.203125 10.980469 149.46875 C 10.96875 149.324219 10.945312 149.191406 10.941406 149.050781 L 10.9375 148.800781 C 10.921875 149.273438 10.921875 149.765625 10.941406 150.277344 C 10.921875 150.828125 10.914062 151.394531 10.941406 151.996094 L 10.945312 152.054688 C 10.9375 152.363281 10.925781 152.671875 10.929688 152.996094 C 10.9375 152.761719 10.957031 152.539062 10.96875 152.3125 C 11.902344 166.9375 35.222656 164.015625 35.222656 164.015625 C 35.222656 164.015625 127.101562 159.292969 142.417969 158.171875 C 158.984375 156.960938 165.003906 156.808594 165.003906 156.808594 C 165.003906 156.808594 174.199219 156.191406 177.878906 162.164062 " fill-opacity="1" fill-rule="nonzero"/></g><g clip-path="url(#59bb72ca98)"><g clip-path="url(#b612f2f346)"><path fill="#ffffff" d="M 39.5625 65.5625 L 335.828125 65.5625 L 335.828125 309.4375 L 39.5625 309.4375 Z M 39.5625 65.5625 " fill-opacity="1" fill-rule="nonzero"/></g></g><g clip-path="url(#bec1b6eca7)"><path fill="#007bff" d="M 239.398438 222.535156 C 239.238281 222.535156 239.054688 222.535156 238.890625 222.433594 C 233.140625 220.886719 227.78125 218.472656 222.808594 215.199219 C 221.785156 214.585938 220.761719 213.953125 219.679688 213.28125 C 216.738281 211.359375 205.191406 203.941406 199.46875 203.347656 C 186.085938 201.917969 161.113281 204.535156 151.8125 205.390625 L 151.386719 205.390625 C 150.957031 205.394531 150.546875 205.476562 150.148438 205.640625 C 149.753906 205.808594 149.40625 206.039062 149.101562 206.34375 C 148.796875 206.644531 148.5625 206.992188 148.394531 207.386719 C 148.226562 207.78125 148.140625 208.191406 148.136719 208.621094 L 148.136719 210.542969 L 148.277344 210.949219 L 148.402344 211.113281 C 148.640625 211.730469 149.035156 212.222656 149.578125 212.59375 C 150.121094 212.96875 150.726562 213.15625 151.386719 213.15625 L 199.675781 213.15625 C 200.082031 213.1875 200.46875 213.292969 200.835938 213.472656 C 201.203125 213.652344 201.527344 213.890625 201.804688 214.191406 C 202.082031 214.492188 202.292969 214.832031 202.441406 215.210938 C 202.589844 215.59375 202.664062 215.988281 202.664062 216.394531 C 202.664062 216.804688 202.589844 217.199219 202.441406 217.578125 C 202.292969 217.960938 202.082031 218.300781 201.804688 218.601562 C 201.527344 218.902344 201.203125 219.140625 200.835938 219.320312 C 200.46875 219.496094 200.082031 219.601562 199.675781 219.636719 L 151.386719 219.636719 C 150.960938 219.636719 150.554688 219.714844 150.160156 219.875 C 149.769531 220.035156 149.417969 220.261719 149.117188 220.558594 C 148.8125 220.855469 148.574219 221.195312 148.40625 221.585938 C 148.238281 221.972656 148.148438 222.378906 148.136719 222.800781 L 148.136719 224.027344 C 148.132812 224.460938 148.214844 224.878906 148.378906 225.277344 C 148.542969 225.679688 148.777344 226.03125 149.082031 226.339844 C 149.386719 226.644531 149.738281 226.882812 150.136719 227.050781 C 150.535156 227.214844 150.953125 227.296875 151.386719 227.296875 L 199.675781 227.296875 C 200.101562 227.296875 200.515625 227.378906 200.910156 227.542969 C 201.304688 227.707031 201.65625 227.941406 201.957031 228.242188 C 202.261719 228.546875 202.492188 228.894531 202.65625 229.292969 C 202.820312 229.6875 202.902344 230.097656 202.902344 230.527344 C 202.902344 230.957031 202.820312 231.367188 202.65625 231.761719 C 202.492188 232.160156 202.261719 232.507812 201.957031 232.808594 C 201.65625 233.113281 201.304688 233.347656 200.910156 233.511719 C 200.515625 233.675781 200.101562 233.757812 199.675781 233.757812 L 151.386719 233.757812 C 150.953125 233.757812 150.535156 233.839844 150.136719 234.003906 C 149.738281 234.171875 149.386719 234.40625 149.082031 234.714844 C 148.777344 235.023438 148.542969 235.375 148.378906 235.777344 C 148.214844 236.175781 148.132812 236.59375 148.136719 237.027344 L 148.136719 238.25 C 148.136719 238.679688 148.21875 239.09375 148.382812 239.492188 C 148.550781 239.890625 148.785156 240.238281 149.089844 240.542969 C 149.394531 240.84375 149.746094 241.078125 150.144531 241.242188 C 150.542969 241.402344 150.957031 241.484375 151.386719 241.480469 L 199.675781 241.480469 C 200.082031 241.511719 200.46875 241.617188 200.835938 241.796875 C 201.203125 241.976562 201.527344 242.214844 201.804688 242.515625 C 202.082031 242.816406 202.292969 243.15625 202.441406 243.535156 C 202.589844 243.917969 202.664062 244.3125 202.664062 244.71875 C 202.664062 245.128906 202.589844 245.523438 202.441406 245.902344 C 202.292969 246.285156 202.082031 246.625 201.804688 246.925781 C 201.527344 247.222656 201.203125 247.464844 200.835938 247.640625 C 200.46875 247.820312 200.082031 247.925781 199.675781 247.957031 L 151.386719 247.957031 C 150.730469 247.953125 150.132812 248.128906 149.589844 248.492188 C 149.042969 248.851562 148.648438 249.335938 148.402344 249.941406 L 148.402344 250.0625 L 148.136719 250.511719 L 148.136719 252.453125 C 148.136719 252.886719 148.21875 253.300781 148.382812 253.699219 C 148.546875 254.097656 148.78125 254.445312 149.085938 254.75 C 149.390625 255.054688 149.742188 255.292969 150.140625 255.457031 C 150.539062 255.621094 150.953125 255.703125 151.386719 255.703125 L 151.8125 255.703125 C 161.113281 256.5 186.085938 259.117188 199.46875 257.707031 C 205.191406 257.09375 216.738281 249.695312 219.679688 247.753906 C 220.761719 247.078125 221.722656 246.445312 222.808594 245.832031 C 227.785156 242.574219 233.144531 240.171875 238.890625 238.621094 C 239.054688 238.621094 239.238281 238.621094 239.398438 238.515625 C 239.5625 238.414062 240.257812 238.332031 240.707031 238.25 C 244.53125 237.640625 248.363281 237.539062 252.214844 237.945312 C 266.335938 239.234375 297.84375 243.09375 329.355469 243.402344 C 355.921875 243.667969 357.964844 234.289062 357.964844 231.386719 C 357.980469 231.097656 357.980469 230.8125 357.964844 230.527344 C 357.984375 230.242188 357.984375 229.953125 357.964844 229.667969 C 357.964844 226.789062 355.921875 217.40625 329.355469 217.652344 C 297.84375 217.960938 266.335938 221.738281 252.214844 223.109375 C 248.363281 223.515625 244.53125 223.414062 240.707031 222.800781 C 240.257812 222.722656 239.828125 222.640625 239.398438 222.535156 Z M 239.398438 222.535156 " fill-opacity="1" fill-rule="nonzero"/></g><g clip-path="url(#3187f748f8)"><path fill="#007bff" d="M 178.230469 131.109375 C 199.175781 131.109375 226.03125 143.253906 226.03125 158.230469 C 226.03125 173.207031 199.140625 185.359375 178.230469 185.359375 C 160.890625 185.359375 153.050781 174.199219 150.84375 164.210938 C 146.421875 164.246094 138.285156 164.292969 123.410156 164.292969 C 104.3125 164.292969 35.171875 171.109375 35.171875 171.109375 C 28.203125 171.367188 22.3125 165.628906 22.3125 158.246094 C 22.3125 150.863281 28.1875 145.132812 35.171875 145.386719 C 35.171875 145.386719 104.3125 152.589844 123.410156 152.589844 C 138.617188 152.589844 146.652344 152.550781 150.898438 152.503906 C 153.140625 142.910156 160.992188 131.109375 178.230469 131.109375 Z M 178.230469 131.109375 " fill-opacity="1" fill-rule="nonzero"/></g><path fill="#007bff" d="M 156.273438 166.242188 C 156.273438 166.242188 161.953125 166.433594 124.082031 166.433594 C 104.984375 166.433594 35.84375 173.253906 35.84375 173.253906 C 28.875 173.507812 22.984375 167.777344 22.984375 160.390625 C 22.984375 153.007812 28.859375 147.273438 35.84375 147.53125 C 35.84375 147.53125 104.984375 154.730469 124.082031 154.730469 C 157.988281 154.730469 156.273438 154.542969 156.273438 154.542969 Z M 156.273438 166.242188 " fill-opacity="1" fill-rule="nonzero"/><g clip-path="url(#a87e4ea465)"><path fill="#007bff" d="M 178.902344 133.265625 C 157.953125 133.265625 150.859375 150.691406 150.859375 160.390625 C 150.859375 171.230469 157.953125 187.515625 178.902344 187.515625 C 199.847656 187.515625 226.703125 175.371094 226.703125 160.390625 C 226.703125 145.414062 199.847656 133.265625 178.902344 133.265625 Z M 178.902344 133.265625 " fill-opacity="1" fill-rule="nonzero"/></g><path fill="#007bff" d="M 222.351562 155.785156 C 222.351562 155.785156 207.140625 137.191406 179.191406 137.085938 C 160.308594 137.011719 156.285156 154.542969 156.285156 154.542969 C 156.285156 154.542969 159.925781 143.238281 177.105469 143.238281 C 208.25 143.238281 222.351562 155.785156 222.351562 155.785156 Z M 222.351562 155.785156 " fill-opacity="1" fill-rule="nonzero"/></svg>