<svg xmlns="http://www.w3.org/2000/svg" xmlns:xlink="http://www.w3.org/1999/xlink" width="500" zoomAndPan="magnify" viewBox="0 0 375 374.999991" height="500" preserveAspectRatio="xMidYMid meet" version="1.0"><defs><g/><clipPath id="a3ee3a9f44"><path d="M 146.527344 165.523438 L 273.277344 165.523438 L 273.277344 191.773438 L 146.527344 191.773438 Z M 146.527344 165.523438 " clip-rule="nonzero"/></clipPath><clipPath id="c625045aef"><path d="M 101.714844 119 L 228.464844 119 L 228.464844 151 L 101.714844 151 Z M 101.714844 119 " clip-rule="nonzero"/></clipPath><clipPath id="e5e488d97a"><path d="M 115.46875 82.507812 L 259.53125 82.507812 L 259.53125 226.574219 L 115.46875 226.574219 Z M 115.46875 82.507812 " clip-rule="nonzero"/></clipPath><clipPath id="cf33a3c93e"><path d="M 137.976562 82.507812 L 237.023438 82.507812 C 249.453125 82.507812 259.53125 92.585938 259.53125 105.019531 L 259.53125 204.0625 C 259.53125 216.496094 249.453125 226.574219 237.023438 226.574219 L 137.976562 226.574219 C 125.546875 226.574219 115.46875 216.496094 115.46875 204.0625 L 115.46875 105.019531 C 115.46875 92.585938 125.546875 82.507812 137.976562 82.507812 Z M 137.976562 82.507812 " clip-rule="nonzero"/></clipPath><clipPath id="9aca644128"><path d="M 168.335938 158.621094 L 270.335938 158.621094 L 270.335938 186 L 168.335938 186 Z M 168.335938 158.621094 " clip-rule="nonzero"/></clipPath><clipPath id="c176436521"><path d="M 107.097656 123.921875 L 206.847656 123.921875 L 206.847656 151 L 107.097656 151 Z M 107.097656 123.921875 " clip-rule="nonzero"/></clipPath><clipPath id="f28ce979ab"><path d="M 107.097656 131 L 173 131 L 173 145 L 107.097656 145 Z M 107.097656 131 " clip-rule="nonzero"/></clipPath><clipPath id="b07218edad"><path d="M 169 124 L 206.847656 124 L 206.847656 151.390625 L 169 151.390625 Z M 169 124 " clip-rule="nonzero"/></clipPath></defs><g clip-path="url(#a3ee3a9f44)"><path fill="#5dbbff" d="M 199.296875 174.023438 C 197.257812 174.023438 195.246094 173.523438 193.445312 172.585938 L 188.03125 168.179688 C 185.6875 166.261719 182.714844 165.277344 179.691406 165.382812 L 147.972656 168.199219 C 147.167969 168.226562 146.527344 168.886719 146.527344 169.664062 C 146.527344 170.4375 147.167969 171.050781 147.972656 171.023438 L 176.15625 169.652344 C 177.265625 169.617188 178.175781 170.417969 178.175781 171.445312 C 178.175781 172.46875 177.265625 173.3125 176.15625 173.332031 L 147.972656 174.136719 C 147.167969 174.144531 146.527344 174.789062 146.527344 175.5625 C 146.527344 176.339844 147.167969 176.960938 147.972656 176.960938 L 176.15625 176.675781 C 177.265625 176.664062 178.175781 177.488281 178.175781 178.515625 C 178.175781 179.539062 177.265625 180.363281 176.15625 180.351562 L 147.972656 180.066406 C 147.167969 180.074219 146.527344 180.699219 146.527344 181.472656 C 146.527344 182.25 147.167969 182.890625 147.972656 182.910156 L 176.15625 183.714844 C 177.265625 183.734375 178.175781 184.578125 178.175781 185.601562 C 178.175781 186.628906 177.265625 187.433594 176.15625 187.394531 L 147.972656 186.023438 C 147.167969 185.996094 146.527344 186.609375 146.527344 187.382812 C 146.527344 188.160156 147.167969 188.820312 147.972656 188.851562 L 179.691406 191.664062 C 182.714844 191.769531 185.675781 190.773438 188.03125 188.867188 L 193.445312 184.460938 C 195.253906 183.515625 197.257812 183.027344 199.296875 183.027344 C 199.296875 183.027344 229.578125 180.976562 258.800781 184.855469 C 258.800781 184.855469 273.476562 187.851562 273.476562 178.535156 C 273.476562 169.214844 258.800781 172.210938 258.800781 172.210938 C 229.578125 176.070312 199.296875 174.023438 199.296875 174.023438 Z M 199.296875 174.023438 " fill-opacity="1" fill-rule="nonzero"/></g><g clip-path="url(#c625045aef)"><path fill="#5dbbff" d="M 182.8125 139.054688 C 185.292969 143.085938 188.59375 151.371094 203.0625 150.050781 C 217.019531 148.777344 227.996094 142.492188 228.445312 135.46875 C 228.445312 135.558594 228.457031 135.644531 228.453125 135.734375 C 228.453125 135.660156 228.457031 135.589844 228.457031 135.515625 C 228.460938 135.382812 228.457031 135.253906 228.453125 135.121094 C 228.457031 134.980469 228.460938 134.839844 228.457031 134.703125 C 228.460938 134.582031 228.457031 134.460938 228.453125 134.339844 C 228.457031 134.210938 228.460938 134.082031 228.457031 133.953125 C 228.460938 133.84375 228.453125 133.730469 228.453125 133.621094 C 228.453125 133.71875 228.441406 133.8125 228.4375 133.910156 C 227.921875 127.273438 216.972656 120.535156 203.0625 119.339844 C 188.59375 118.101562 185.546875 126.066406 182.8125 129.671875 C 180.789062 132.335938 176.542969 132.082031 176.542969 132.082031 C 176.542969 132.082031 173.042969 131.898438 165.585938 131.324219 C 158.449219 130.777344 121.085938 127.628906 114.304688 127.628906 C 107.933594 127.628906 101.996094 126.902344 101.546875 132.871094 C 101.542969 132.804688 101.53125 132.738281 101.53125 132.667969 L 101.527344 132.546875 C 101.519531 132.777344 101.519531 133.019531 101.53125 133.265625 C 101.519531 133.535156 101.519531 133.808594 101.53125 134.101562 L 101.53125 134.132812 C 101.527344 134.28125 101.523438 134.433594 101.523438 134.589844 C 101.527344 134.476562 101.539062 134.367188 101.542969 134.257812 C 102 141.378906 113.351562 139.957031 113.351562 139.957031 C 113.351562 139.957031 158.089844 137.65625 165.546875 137.109375 C 173.613281 136.519531 176.542969 136.445312 176.542969 136.445312 C 176.542969 136.445312 181.019531 136.148438 182.8125 139.054688 " fill-opacity="1" fill-rule="nonzero"/></g><g clip-path="url(#e5e488d97a)"><g clip-path="url(#cf33a3c93e)"><path fill="#ffffff" d="M 115.46875 82.507812 L 259.53125 82.507812 L 259.53125 226.574219 L 115.46875 226.574219 Z M 115.46875 82.507812 " fill-opacity="1" fill-rule="nonzero"/></g></g><g clip-path="url(#9aca644128)"><path fill="#007bff" d="M 212.773438 168.453125 C 212.691406 168.453125 212.605469 168.453125 212.523438 168.402344 C 209.726562 167.648438 207.113281 166.472656 204.695312 164.878906 C 204.195312 164.582031 203.699219 164.273438 203.171875 163.945312 C 201.738281 163.007812 196.117188 159.398438 193.332031 159.109375 C 186.8125 158.414062 174.652344 159.6875 170.125 160.105469 L 169.917969 160.105469 C 169.710938 160.105469 169.507812 160.144531 169.316406 160.226562 C 169.125 160.304688 168.953125 160.417969 168.804688 160.566406 C 168.65625 160.714844 168.542969 160.882812 168.460938 161.074219 C 168.378906 161.265625 168.339844 161.46875 168.335938 161.675781 L 168.335938 162.609375 L 168.40625 162.808594 L 168.464844 162.890625 C 168.582031 163.1875 168.773438 163.429688 169.039062 163.613281 C 169.304688 163.792969 169.597656 163.882812 169.917969 163.886719 L 193.429688 163.886719 C 193.628906 163.902344 193.816406 163.953125 193.996094 164.039062 C 194.175781 164.125 194.332031 164.242188 194.464844 164.386719 C 194.601562 164.535156 194.707031 164.699219 194.777344 164.886719 C 194.851562 165.070312 194.886719 165.261719 194.886719 165.460938 C 194.886719 165.660156 194.851562 165.851562 194.777344 166.039062 C 194.707031 166.222656 194.601562 166.390625 194.464844 166.535156 C 194.332031 166.679688 194.175781 166.796875 193.996094 166.886719 C 193.816406 166.972656 193.628906 167.023438 193.429688 167.039062 L 169.917969 167.039062 C 169.710938 167.039062 169.511719 167.078125 169.320312 167.15625 C 169.128906 167.234375 168.960938 167.34375 168.8125 167.488281 C 168.664062 167.632812 168.550781 167.800781 168.46875 167.988281 C 168.386719 168.175781 168.339844 168.375 168.335938 168.582031 L 168.335938 169.179688 C 168.335938 169.390625 168.375 169.59375 168.453125 169.785156 C 168.53125 169.980469 168.648438 170.152344 168.796875 170.304688 C 168.945312 170.453125 169.117188 170.566406 169.308594 170.648438 C 169.503906 170.730469 169.707031 170.769531 169.917969 170.769531 L 193.429688 170.769531 C 193.636719 170.769531 193.839844 170.808594 194.03125 170.890625 C 194.222656 170.96875 194.394531 171.082031 194.542969 171.230469 C 194.6875 171.378906 194.800781 171.546875 194.882812 171.742188 C 194.960938 171.933594 195.003906 172.132812 195.003906 172.34375 C 195.003906 172.550781 194.960938 172.75 194.882812 172.945312 C 194.800781 173.136719 194.6875 173.308594 194.542969 173.453125 C 194.394531 173.601562 194.222656 173.714844 194.03125 173.792969 C 193.839844 173.875 193.636719 173.914062 193.429688 173.914062 L 169.917969 173.914062 C 169.707031 173.914062 169.503906 173.953125 169.308594 174.035156 C 169.117188 174.117188 168.945312 174.230469 168.796875 174.382812 C 168.648438 174.53125 168.53125 174.703125 168.453125 174.898438 C 168.375 175.09375 168.335938 175.296875 168.335938 175.507812 L 168.335938 176.105469 C 168.335938 176.3125 168.375 176.515625 168.457031 176.707031 C 168.535156 176.902344 168.652344 177.070312 168.800781 177.21875 C 168.949219 177.367188 169.121094 177.480469 169.3125 177.558594 C 169.507812 177.636719 169.707031 177.675781 169.917969 177.675781 L 193.429688 177.675781 C 193.628906 177.691406 193.816406 177.742188 193.996094 177.828125 C 194.175781 177.917969 194.332031 178.035156 194.464844 178.179688 C 194.601562 178.324219 194.707031 178.492188 194.777344 178.675781 C 194.851562 178.863281 194.886719 179.054688 194.886719 179.253906 C 194.886719 179.453125 194.851562 179.644531 194.777344 179.828125 C 194.707031 180.015625 194.601562 180.179688 194.464844 180.328125 C 194.332031 180.472656 194.175781 180.589844 193.996094 180.675781 C 193.816406 180.761719 193.628906 180.8125 193.429688 180.828125 L 169.917969 180.828125 C 169.601562 180.828125 169.308594 180.914062 169.042969 181.089844 C 168.777344 181.265625 168.585938 181.5 168.464844 181.796875 L 168.464844 181.855469 L 168.335938 182.074219 L 168.335938 183.019531 C 168.335938 183.230469 168.375 183.429688 168.457031 183.625 C 168.535156 183.816406 168.652344 183.988281 168.800781 184.136719 C 168.949219 184.285156 169.117188 184.398438 169.3125 184.480469 C 169.507812 184.5625 169.707031 184.601562 169.917969 184.601562 L 170.125 184.601562 C 174.652344 184.988281 186.8125 186.261719 193.332031 185.574219 C 196.117188 185.277344 201.738281 181.675781 203.171875 180.730469 C 203.699219 180.402344 204.167969 180.09375 204.695312 179.796875 C 207.117188 178.207031 209.726562 177.039062 212.523438 176.28125 C 212.605469 176.28125 212.691406 176.28125 212.773438 176.234375 C 212.851562 176.183594 213.191406 176.144531 213.410156 176.105469 C 215.269531 175.808594 217.136719 175.757812 219.011719 175.953125 C 225.886719 176.582031 241.230469 178.460938 256.574219 178.609375 C 269.507812 178.742188 270.503906 174.171875 270.503906 172.761719 C 270.511719 172.621094 270.511719 172.480469 270.503906 172.34375 C 270.511719 172.203125 270.511719 172.0625 270.503906 171.925781 C 270.503906 170.523438 269.507812 165.953125 256.574219 166.074219 C 241.230469 166.222656 225.886719 168.0625 219.011719 168.730469 C 217.136719 168.929688 215.269531 168.878906 213.410156 168.582031 C 213.191406 168.542969 212.980469 168.5 212.773438 168.453125 Z M 212.773438 168.453125 " fill-opacity="1" fill-rule="nonzero"/></g><g clip-path="url(#c176436521)"><path fill="#007bff" d="M 182.988281 123.9375 C 193.1875 123.9375 206.261719 129.847656 206.261719 137.140625 C 206.261719 144.433594 193.167969 150.351562 182.988281 150.351562 C 174.542969 150.351562 170.726562 144.917969 169.652344 140.054688 C 167.5 140.070312 163.539062 140.09375 156.292969 140.09375 C 146.996094 140.09375 113.332031 143.410156 113.332031 143.410156 C 109.9375 143.539062 107.066406 140.746094 107.066406 137.148438 C 107.066406 133.554688 109.929688 130.761719 113.332031 130.886719 C 113.332031 130.886719 146.996094 134.394531 156.292969 134.394531 C 163.699219 134.394531 167.609375 134.375 169.679688 134.355469 C 170.769531 129.683594 174.59375 123.9375 182.988281 123.9375 Z M 182.988281 123.9375 " fill-opacity="1" fill-rule="nonzero"/></g><g clip-path="url(#f28ce979ab)"><path fill="#007bff" d="M 172.292969 141.042969 C 172.292969 141.042969 175.0625 141.132812 156.621094 141.132812 C 147.324219 141.132812 113.65625 144.457031 113.65625 144.457031 C 110.261719 144.578125 107.394531 141.789062 107.394531 138.195312 C 107.394531 134.597656 110.257812 131.804688 113.65625 131.929688 C 113.65625 131.929688 147.324219 135.4375 156.621094 135.4375 C 173.132812 135.4375 172.292969 135.34375 172.292969 135.34375 Z M 172.292969 141.042969 " fill-opacity="1" fill-rule="nonzero"/></g><g clip-path="url(#b07218edad)"><path fill="#007bff" d="M 183.3125 124.984375 C 173.113281 124.984375 169.660156 133.472656 169.660156 138.195312 C 169.660156 143.472656 173.113281 151.398438 183.3125 151.398438 C 193.511719 151.398438 206.589844 145.488281 206.589844 138.195312 C 206.589844 130.902344 193.511719 124.984375 183.3125 124.984375 Z M 183.3125 124.984375 " fill-opacity="1" fill-rule="nonzero"/></g><path fill="#007bff" d="M 204.46875 135.953125 C 204.46875 135.953125 197.0625 126.894531 183.453125 126.84375 C 174.261719 126.808594 172.300781 135.34375 172.300781 135.34375 C 172.300781 135.34375 174.074219 129.839844 182.4375 129.839844 C 197.601562 129.839844 204.46875 135.953125 204.46875 135.953125 Z M 204.46875 135.953125 " fill-opacity="1" fill-rule="nonzero"/><g fill="#ffffff" fill-opacity="1"><g transform="translate(109.034915, 280.121847)"><g><path d="M 7.421875 0.265625 C 6.117188 0.265625 4.832031 0.117188 3.5625 -0.171875 C 2.300781 -0.472656 1.285156 -0.863281 0.515625 -1.34375 L 2.15625 -5.09375 C 2.863281 -4.644531 3.707031 -4.289062 4.6875 -4.03125 C 5.664062 -3.78125 6.632812 -3.65625 7.59375 -3.65625 C 8.46875 -3.65625 9.09375 -3.742188 9.46875 -3.921875 C 9.84375 -4.109375 10.03125 -4.375 10.03125 -4.71875 C 10.03125 -5.0625 9.804688 -5.300781 9.359375 -5.4375 C 8.910156 -5.582031 8.195312 -5.722656 7.21875 -5.859375 C 5.96875 -6.015625 4.90625 -6.21875 4.03125 -6.46875 C 3.164062 -6.71875 2.414062 -7.175781 1.78125 -7.84375 C 1.144531 -8.519531 0.828125 -9.460938 0.828125 -10.671875 C 0.828125 -11.660156 1.125 -12.539062 1.71875 -13.3125 C 2.3125 -14.09375 3.175781 -14.707031 4.3125 -15.15625 C 5.457031 -15.613281 6.828125 -15.84375 8.421875 -15.84375 C 9.554688 -15.84375 10.675781 -15.726562 11.78125 -15.5 C 12.894531 -15.269531 13.828125 -14.941406 14.578125 -14.515625 L 12.9375 -10.8125 C 11.5625 -11.570312 10.066406 -11.953125 8.453125 -11.953125 C 7.585938 -11.953125 6.953125 -11.851562 6.546875 -11.65625 C 6.148438 -11.457031 5.953125 -11.195312 5.953125 -10.875 C 5.953125 -10.507812 6.171875 -10.253906 6.609375 -10.109375 C 7.054688 -9.960938 7.785156 -9.8125 8.796875 -9.65625 C 10.078125 -9.46875 11.140625 -9.25 11.984375 -9 C 12.828125 -8.75 13.5625 -8.289062 14.1875 -7.625 C 14.8125 -6.96875 15.125 -6.046875 15.125 -4.859375 C 15.125 -3.878906 14.828125 -3 14.234375 -2.21875 C 13.640625 -1.445312 12.757812 -0.835938 11.59375 -0.390625 C 10.4375 0.046875 9.046875 0.265625 7.421875 0.265625 Z M 7.421875 0.265625 "/></g></g></g><g fill="#ffffff" fill-opacity="1"><g transform="translate(124.75905, 280.121847)"><g><path d="M 17.6875 -7.765625 C 17.6875 -7.722656 17.65625 -7.269531 17.59375 -6.40625 L 6.265625 -6.40625 C 6.492188 -5.601562 6.9375 -4.984375 7.59375 -4.546875 C 8.257812 -4.117188 9.09375 -3.90625 10.09375 -3.90625 C 10.84375 -3.90625 11.488281 -4.007812 12.03125 -4.21875 C 12.570312 -4.4375 13.125 -4.785156 13.6875 -5.265625 L 16.5625 -2.265625 C 15.039062 -0.578125 12.828125 0.265625 9.921875 0.265625 C 8.097656 0.265625 6.492188 -0.078125 5.109375 -0.765625 C 3.734375 -1.460938 2.664062 -2.421875 1.90625 -3.640625 C 1.15625 -4.867188 0.78125 -6.257812 0.78125 -7.8125 C 0.78125 -9.351562 1.144531 -10.726562 1.875 -11.9375 C 2.613281 -13.15625 3.632812 -14.109375 4.9375 -14.796875 C 6.25 -15.492188 7.71875 -15.84375 9.34375 -15.84375 C 10.894531 -15.84375 12.300781 -15.519531 13.5625 -14.875 C 14.832031 -14.238281 15.835938 -13.3125 16.578125 -12.09375 C 17.316406 -10.875 17.6875 -9.429688 17.6875 -7.765625 Z M 9.375 -11.953125 C 8.53125 -11.953125 7.820312 -11.710938 7.25 -11.234375 C 6.6875 -10.753906 6.332031 -10.101562 6.1875 -9.28125 L 12.5625 -9.28125 C 12.40625 -10.101562 12.046875 -10.753906 11.484375 -11.234375 C 10.921875 -11.710938 10.21875 -11.953125 9.375 -11.953125 Z M 9.375 -11.953125 "/></g></g></g><g fill="#ffffff" fill-opacity="1"><g transform="translate(143.214066, 280.121847)"><g><path d="M 6.953125 -13.71875 C 7.515625 -14.425781 8.238281 -14.957031 9.125 -15.3125 C 10.019531 -15.664062 11.039062 -15.84375 12.1875 -15.84375 L 12.1875 -10.921875 C 11.6875 -10.984375 11.273438 -11.015625 10.953125 -11.015625 C 9.785156 -11.015625 8.867188 -10.695312 8.203125 -10.0625 C 7.546875 -9.425781 7.21875 -8.457031 7.21875 -7.15625 L 7.21875 0 L 1.75 0 L 1.75 -15.578125 L 6.953125 -15.578125 Z M 6.953125 -13.71875 "/></g></g></g><g fill="#ffffff" fill-opacity="1"><g transform="translate(155.948604, 280.121847)"><g><path d="M 18.171875 -15.578125 L 11.734375 0 L 6.09375 0 L -0.3125 -15.578125 L 5.296875 -15.578125 L 9.03125 -6.0625 L 12.96875 -15.578125 Z M 18.171875 -15.578125 "/></g></g></g><g fill="#ffffff" fill-opacity="1"><g transform="translate(173.771208, 280.121847)"><g><path d="M 1.75 -15.578125 L 7.21875 -15.578125 L 7.21875 0 L 1.75 0 Z M 4.484375 -17.3125 C 3.484375 -17.3125 2.675781 -17.585938 2.0625 -18.140625 C 1.457031 -18.691406 1.15625 -19.382812 1.15625 -20.21875 C 1.15625 -21.039062 1.457031 -21.726562 2.0625 -22.28125 C 2.675781 -22.832031 3.484375 -23.109375 4.484375 -23.109375 C 5.484375 -23.109375 6.285156 -22.84375 6.890625 -22.3125 C 7.503906 -21.789062 7.8125 -21.117188 7.8125 -20.296875 C 7.8125 -19.429688 7.503906 -18.71875 6.890625 -18.15625 C 6.285156 -17.59375 5.484375 -17.3125 4.484375 -17.3125 Z M 4.484375 -17.3125 "/></g></g></g><g fill="#ffffff" fill-opacity="1"><g transform="translate(182.768747, 280.121847)"><g><path d="M 7.421875 0.265625 C 6.117188 0.265625 4.832031 0.117188 3.5625 -0.171875 C 2.300781 -0.472656 1.285156 -0.863281 0.515625 -1.34375 L 2.15625 -5.09375 C 2.863281 -4.644531 3.707031 -4.289062 4.6875 -4.03125 C 5.664062 -3.78125 6.632812 -3.65625 7.59375 -3.65625 C 8.46875 -3.65625 9.09375 -3.742188 9.46875 -3.921875 C 9.84375 -4.109375 10.03125 -4.375 10.03125 -4.71875 C 10.03125 -5.0625 9.804688 -5.300781 9.359375 -5.4375 C 8.910156 -5.582031 8.195312 -5.722656 7.21875 -5.859375 C 5.96875 -6.015625 4.90625 -6.21875 4.03125 -6.46875 C 3.164062 -6.71875 2.414062 -7.175781 1.78125 -7.84375 C 1.144531 -8.519531 0.828125 -9.460938 0.828125 -10.671875 C 0.828125 -11.660156 1.125 -12.539062 1.71875 -13.3125 C 2.3125 -14.09375 3.175781 -14.707031 4.3125 -15.15625 C 5.457031 -15.613281 6.828125 -15.84375 8.421875 -15.84375 C 9.554688 -15.84375 10.675781 -15.726562 11.78125 -15.5 C 12.894531 -15.269531 13.828125 -14.941406 14.578125 -14.515625 L 12.9375 -10.8125 C 11.5625 -11.570312 10.066406 -11.953125 8.453125 -11.953125 C 7.585938 -11.953125 6.953125 -11.851562 6.546875 -11.65625 C 6.148438 -11.457031 5.953125 -11.195312 5.953125 -10.875 C 5.953125 -10.507812 6.171875 -10.253906 6.609375 -10.109375 C 7.054688 -9.960938 7.785156 -9.8125 8.796875 -9.65625 C 10.078125 -9.46875 11.140625 -9.25 11.984375 -9 C 12.828125 -8.75 13.5625 -8.289062 14.1875 -7.625 C 14.8125 -6.96875 15.125 -6.046875 15.125 -4.859375 C 15.125 -3.878906 14.828125 -3 14.234375 -2.21875 C 13.640625 -1.445312 12.757812 -0.835938 11.59375 -0.390625 C 10.4375 0.046875 9.046875 0.265625 7.421875 0.265625 Z M 7.421875 0.265625 "/></g></g></g><g fill="#ffffff" fill-opacity="1"><g transform="translate(198.492882, 280.121847)"><g><path d="M 17.6875 -7.765625 C 17.6875 -7.722656 17.65625 -7.269531 17.59375 -6.40625 L 6.265625 -6.40625 C 6.492188 -5.601562 6.9375 -4.984375 7.59375 -4.546875 C 8.257812 -4.117188 9.09375 -3.90625 10.09375 -3.90625 C 10.84375 -3.90625 11.488281 -4.007812 12.03125 -4.21875 C 12.570312 -4.4375 13.125 -4.785156 13.6875 -5.265625 L 16.5625 -2.265625 C 15.039062 -0.578125 12.828125 0.265625 9.921875 0.265625 C 8.097656 0.265625 6.492188 -0.078125 5.109375 -0.765625 C 3.734375 -1.460938 2.664062 -2.421875 1.90625 -3.640625 C 1.15625 -4.867188 0.78125 -6.257812 0.78125 -7.8125 C 0.78125 -9.351562 1.144531 -10.726562 1.875 -11.9375 C 2.613281 -13.15625 3.632812 -14.109375 4.9375 -14.796875 C 6.25 -15.492188 7.71875 -15.84375 9.34375 -15.84375 C 10.894531 -15.84375 12.300781 -15.519531 13.5625 -14.875 C 14.832031 -14.238281 15.835938 -13.3125 16.578125 -12.09375 C 17.316406 -10.875 17.6875 -9.429688 17.6875 -7.765625 Z M 9.375 -11.953125 C 8.53125 -11.953125 7.820312 -11.710938 7.25 -11.234375 C 6.6875 -10.753906 6.332031 -10.101562 6.1875 -9.28125 L 12.5625 -9.28125 C 12.40625 -10.101562 12.046875 -10.753906 11.484375 -11.234375 C 10.921875 -11.710938 10.21875 -11.953125 9.375 -11.953125 Z M 9.375 -11.953125 "/></g></g></g><g fill="#ffffff" fill-opacity="1"><g transform="translate(216.947898, 280.121847)"><g><path d="M 6.953125 -13.71875 C 7.515625 -14.425781 8.238281 -14.957031 9.125 -15.3125 C 10.019531 -15.664062 11.039062 -15.84375 12.1875 -15.84375 L 12.1875 -10.921875 C 11.6875 -10.984375 11.273438 -11.015625 10.953125 -11.015625 C 9.785156 -11.015625 8.867188 -10.695312 8.203125 -10.0625 C 7.546875 -9.425781 7.21875 -8.457031 7.21875 -7.15625 L 7.21875 0 L 1.75 0 L 1.75 -15.578125 L 6.953125 -15.578125 Z M 6.953125 -13.71875 "/></g></g></g><g fill="#ffffff" fill-opacity="1"><g transform="translate(229.682436, 280.121847)"><g><path d="M 18.171875 -15.578125 L 11.734375 0 L 6.09375 0 L -0.3125 -15.578125 L 5.296875 -15.578125 L 9.03125 -6.0625 L 12.96875 -15.578125 Z M 18.171875 -15.578125 "/></g></g></g><g fill="#ffffff" fill-opacity="1"><g transform="translate(247.50504, 280.121847)"><g><path d="M 17.6875 -7.765625 C 17.6875 -7.722656 17.65625 -7.269531 17.59375 -6.40625 L 6.265625 -6.40625 C 6.492188 -5.601562 6.9375 -4.984375 7.59375 -4.546875 C 8.257812 -4.117188 9.09375 -3.90625 10.09375 -3.90625 C 10.84375 -3.90625 11.488281 -4.007812 12.03125 -4.21875 C 12.570312 -4.4375 13.125 -4.785156 13.6875 -5.265625 L 16.5625 -2.265625 C 15.039062 -0.578125 12.828125 0.265625 9.921875 0.265625 C 8.097656 0.265625 6.492188 -0.078125 5.109375 -0.765625 C 3.734375 -1.460938 2.664062 -2.421875 1.90625 -3.640625 C 1.15625 -4.867188 0.78125 -6.257812 0.78125 -7.8125 C 0.78125 -9.351562 1.144531 -10.726562 1.875 -11.9375 C 2.613281 -13.15625 3.632812 -14.109375 4.9375 -14.796875 C 6.25 -15.492188 7.71875 -15.84375 9.34375 -15.84375 C 10.894531 -15.84375 12.300781 -15.519531 13.5625 -14.875 C 14.832031 -14.238281 15.835938 -13.3125 16.578125 -12.09375 C 17.316406 -10.875 17.6875 -9.429688 17.6875 -7.765625 Z M 9.375 -11.953125 C 8.53125 -11.953125 7.820312 -11.710938 7.25 -11.234375 C 6.6875 -10.753906 6.332031 -10.101562 6.1875 -9.28125 L 12.5625 -9.28125 C 12.40625 -10.101562 12.046875 -10.753906 11.484375 -11.234375 C 10.921875 -11.710938 10.21875 -11.953125 9.375 -11.953125 Z M 9.375 -11.953125 "/></g></g></g></svg>