<svg xmlns="http://www.w3.org/2000/svg" xmlns:xlink="http://www.w3.org/1999/xlink" width="500" zoomAndPan="magnify" viewBox="0 0 375 374.999991" height="500" preserveAspectRatio="xMidYMid meet" version="1.0"><defs><g/><clipPath id="46910f3bb9"><path d="M 110.109375 68.832031 L 264.890625 68.832031 L 264.890625 223.617188 L 110.109375 223.617188 Z M 110.109375 68.832031 " clip-rule="nonzero"/></clipPath><clipPath id="a5f929f691"><path d="M 187.5 68.832031 C 144.757812 68.832031 110.109375 103.484375 110.109375 146.226562 C 110.109375 188.96875 144.757812 223.617188 187.5 223.617188 C 230.242188 223.617188 264.890625 188.96875 264.890625 146.226562 C 264.890625 103.484375 230.242188 68.832031 187.5 68.832031 Z M 187.5 68.832031 " clip-rule="nonzero"/></clipPath><clipPath id="eeb4c0426d"><path d="M 127.957031 86.683594 L 247.042969 86.683594 L 247.042969 205.765625 L 127.957031 205.765625 Z M 127.957031 86.683594 " clip-rule="nonzero"/></clipPath><clipPath id="3ce5b5aa58"><path d="M 187.5 86.683594 C 154.617188 86.683594 127.957031 113.339844 127.957031 146.226562 C 127.957031 179.109375 154.617188 205.765625 187.5 205.765625 C 220.382812 205.765625 247.042969 179.109375 247.042969 146.226562 C 247.042969 113.339844 220.382812 86.683594 187.5 86.683594 Z M 187.5 86.683594 " clip-rule="nonzero"/></clipPath><clipPath id="67344d6f39"><path d="M 128 114 L 258 114 L 258 196 L 128 196 Z M 128 114 " clip-rule="nonzero"/></clipPath><clipPath id="dca17be88e"><path d="M 104.25 136.039062 L 248.261719 86.636719 L 270.894531 152.613281 L 126.882812 202.015625 Z M 104.25 136.039062 " clip-rule="nonzero"/></clipPath><clipPath id="8de896295a"><path d="M 104.25 136.039062 L 248.261719 86.636719 L 270.894531 152.613281 L 126.882812 202.015625 Z M 104.25 136.039062 " clip-rule="nonzero"/></clipPath><clipPath id="3f0a8a6d2a"><path d="M 142 106 L 215 106 L 215 183 L 142 183 Z M 142 106 " clip-rule="nonzero"/></clipPath><clipPath id="d1aaceb5e8"><path d="M 104.25 136.039062 L 248.261719 86.636719 L 270.894531 152.613281 L 126.882812 202.015625 Z M 104.25 136.039062 " clip-rule="nonzero"/></clipPath><clipPath id="2e2a84b9a1"><path d="M 104.25 136.039062 L 248.261719 86.636719 L 270.894531 152.613281 L 126.882812 202.015625 Z M 104.25 136.039062 " clip-rule="nonzero"/></clipPath></defs><g clip-path="url(#46910f3bb9)"><g clip-path="url(#a5f929f691)"><path fill="#ffffff" d="M 110.109375 68.832031 L 264.890625 68.832031 L 264.890625 223.617188 L 110.109375 223.617188 Z M 110.109375 68.832031 " fill-opacity="1" fill-rule="nonzero"/></g></g><g clip-path="url(#eeb4c0426d)"><g clip-path="url(#3ce5b5aa58)"><path fill="#007bff" d="M 127.957031 86.683594 L 247.042969 86.683594 L 247.042969 205.765625 L 127.957031 205.765625 Z M 127.957031 86.683594 " fill-opacity="1" fill-rule="nonzero"/></g></g><g clip-path="url(#67344d6f39)"><g clip-path="url(#dca17be88e)"><g clip-path="url(#8de896295a)"><path fill="#ffffff" d="M 257.867188 118.429688 C 257.835938 119.503906 257.167969 120.53125 256.085938 120.992188 C 255.769531 121.101562 232.496094 130.859375 212.800781 150.257812 C 210.882812 152.160156 209.960938 154.78125 210 157.476562 C 210.074219 161.574219 206.84375 165.347656 203.230469 169.425781 C 196.082031 177.554688 191.480469 179.664062 188.074219 180.078125 C 187.34375 180.152344 200.953125 165.503906 199.75 164.453125 C 198.597656 163.425781 190.347656 172.734375 186.644531 177.332031 C 185.738281 178.441406 184.039062 178.402344 183.167969 177.28125 C 182.523438 176.4375 182.550781 175.230469 183.300781 174.441406 C 186.8125 170.574219 195.882812 161.074219 194.558594 159.535156 C 193.242188 158.03125 181.085938 172.761719 181.085938 172.761719 C 181.085938 172.761719 178.898438 170.140625 182.769531 165.261719 C 189.28125 157.085938 195.164062 148.632812 200.234375 148.804688 C 202.835938 148.886719 207.722656 147.609375 209.269531 145.527344 C 229.402344 118.214844 256.066406 109.820312 257.605469 117.277344 C 257.726562 117.636719 257.863281 118.03125 257.867188 118.429688 Z M 187.785156 146.640625 C 183.042969 149.246094 178.089844 150.324219 174.023438 149.988281 C 171.328125 149.757812 168.65625 150.496094 166.652344 152.292969 C 145.953125 170.707031 134.726562 193.324219 134.570312 193.644531 C 134.046875 194.710938 133.003906 195.289062 131.890625 195.273438 C 131.492188 195.277344 131.027344 195.214844 130.679688 194.976562 C 122.578125 189.460938 136.703125 167.535156 161.847656 148.753906 C 164.035156 147.113281 164.953125 144.359375 165.046875 141.664062 C 165.269531 136.621094 169.808594 130.582031 176.875 126.738281 C 185.921875 121.816406 195.707031 122.277344 198.699219 127.769531 C 201.734375 133.25 196.832031 141.71875 187.785156 146.640625 Z M 193.585938 128.636719 C 192.675781 130.902344 191.550781 132.929688 190.175781 134.730469 C 188.808594 136.574219 187.152344 138.074219 185.371094 139.351562 C 183.457031 140.628906 181.492188 141.746094 179.386719 142.601562 C 177.273438 143.417969 175.023438 144.097656 172.609375 144.304688 C 174.949219 145.054688 177.511719 144.886719 179.933594 144.320312 C 182.34375 143.71875 184.644531 142.660156 186.6875 141.25 C 188.773438 139.824219 190.546875 137.886719 191.734375 135.660156 C 192.910156 133.527344 193.632812 131.105469 193.585938 128.636719 Z M 193.585938 128.636719 " fill-opacity="1" fill-rule="nonzero"/></g></g></g><g clip-path="url(#3f0a8a6d2a)"><g clip-path="url(#d1aaceb5e8)"><g clip-path="url(#2e2a84b9a1)"><path fill="#5dbbff" d="M 173.226562 161.882812 C 173.839844 163.667969 172.902344 165.589844 171.113281 166.203125 C 169.328125 166.8125 167.410156 165.875 166.796875 164.089844 C 166.183594 162.304688 167.121094 160.382812 168.910156 159.769531 C 170.695312 159.160156 172.613281 160.097656 173.226562 161.882812 Z M 208.183594 118.4375 C 205.765625 119.269531 204.488281 121.882812 205.316406 124.300781 C 206.148438 126.722656 208.757812 128 211.179688 127.171875 C 213.601562 126.339844 214.878906 123.726562 214.050781 121.308594 C 213.21875 118.886719 210.566406 117.621094 208.183594 118.4375 Z M 144.472656 134.574219 C 142.84375 135.132812 142.023438 136.875 142.566406 138.464844 C 143.113281 140.050781 144.871094 140.910156 146.460938 140.367188 C 148.085938 139.808594 148.90625 138.0625 148.363281 136.476562 C 147.820312 134.886719 146.058594 134.027344 144.472656 134.574219 Z M 189.546875 106.910156 C 188.355469 107.320312 187.703125 108.652344 188.113281 109.84375 C 188.519531 111.03125 189.855469 111.683594 191.042969 111.277344 C 192.234375 110.867188 192.886719 109.535156 192.480469 108.34375 C 192.070312 107.152344 190.738281 106.5 189.546875 106.910156 Z M 161.410156 179.289062 C 160.613281 179.5625 160.160156 180.429688 160.445312 181.261719 C 160.714844 182.054688 161.582031 182.511719 162.417969 182.226562 C 163.210938 181.953125 163.667969 181.089844 163.382812 180.253906 C 163.09375 179.421875 162.242188 179.003906 161.410156 179.289062 Z M 161.410156 179.289062 " fill-opacity="1" fill-rule="nonzero"/></g></g></g><g fill="#ffffff" fill-opacity="1"><g transform="translate(85.329504, 249.532776)"><g><path d="M 18.71875 -14.671875 C 21.21875 -13.660156 23.132812 -12.316406 24.46875 -10.640625 C 25.8125 -8.960938 26.070312 -7.097656 25.25 -5.046875 L 18.703125 -7.6875 C 18.972656 -8.375 18.859375 -8.984375 18.359375 -9.515625 C 18.035156 -9.921875 17.554688 -10.253906 16.921875 -10.515625 C 15.222656 -11.191406 14.207031 -11.128906 13.875 -10.328125 C 13.695312 -9.878906 13.863281 -9.441406 14.375 -9.015625 C 14.882812 -8.597656 15.769531 -8.007812 17.03125 -7.25 C 18.59375 -6.351562 19.863281 -5.519531 20.84375 -4.75 C 21.832031 -3.988281 22.570312 -3.03125 23.0625 -1.875 C 23.5625 -0.726562 23.519531 0.570312 22.9375 2.03125 C 21.976562 4.414062 20.398438 5.753906 18.203125 6.046875 C 16.015625 6.347656 13.476562 5.921875 10.59375 4.765625 C 8.945312 4.097656 7.484375 3.238281 6.203125 2.1875 C 4.929688 1.144531 4.023438 -0.046875 3.484375 -1.390625 C 2.941406 -2.734375 2.972656 -4.148438 3.578125 -5.640625 L 10.140625 -3 L 10.078125 -2.84375 C 9.773438 -2.03125 9.882812 -1.332031 10.40625 -0.75 C 10.9375 -0.175781 11.566406 0.257812 12.296875 0.5625 C 14.253906 1.34375 15.414062 1.269531 15.78125 0.34375 C 15.976562 -0.132812 15.8125 -0.597656 15.28125 -1.046875 C 14.75 -1.503906 13.832031 -2.132812 12.53125 -2.9375 C 10.976562 -3.894531 9.734375 -4.753906 8.796875 -5.515625 C 7.859375 -6.285156 7.144531 -7.222656 6.65625 -8.328125 C 6.164062 -9.441406 6.207031 -10.707031 6.78125 -12.125 C 7.695312 -14.414062 9.21875 -15.691406 11.34375 -15.953125 C 13.46875 -16.222656 15.925781 -15.796875 18.71875 -14.671875 Z M 18.71875 -14.671875 "/></g></g></g><g fill="#ffffff" fill-opacity="1"><g transform="translate(108.083173, 258.694156)"><g><path d="M 18.015625 -16.171875 C 21.546875 -15.128906 24.003906 -13.503906 25.390625 -11.296875 C 26.773438 -9.097656 26.960938 -6.289062 25.953125 -2.875 L 25.59375 -1.625 L 11.09375 -5.890625 C 10.675781 -4.503906 10.675781 -3.363281 11.09375 -2.46875 C 11.507812 -1.582031 12.382812 -0.941406 13.71875 -0.546875 C 14.9375 -0.179688 15.90625 -0.171875 16.625 -0.515625 C 17.351562 -0.859375 17.84375 -1.457031 18.09375 -2.3125 L 25.171875 -0.234375 C 24.484375 2.109375 23.054688 3.675781 20.890625 4.46875 C 18.722656 5.269531 15.929688 5.164062 12.515625 4.15625 C 8.921875 3.101562 6.378906 1.453125 4.890625 -0.796875 C 3.398438 -3.054688 3.15625 -5.882812 4.15625 -9.28125 C 5.132812 -12.59375 6.835938 -14.816406 9.265625 -15.953125 C 11.703125 -17.097656 14.617188 -17.171875 18.015625 -16.171875 Z M 16.9375 -11.453125 C 14.632812 -12.128906 13.039062 -11.421875 12.15625 -9.328125 L 19.234375 -7.25 C 19.523438 -8.25 19.472656 -9.125 19.078125 -9.875 C 18.679688 -10.625 17.96875 -11.148438 16.9375 -11.453125 Z M 16.9375 -11.453125 "/></g></g></g><g fill="#ffffff" fill-opacity="1"><g transform="translate(133.561792, 265.959214)"><g><path d="M 18.390625 -17.3125 C 18.960938 -17.195312 19.457031 -17.023438 19.875 -16.796875 C 20.300781 -16.566406 20.507812 -16.4375 20.5 -16.40625 L 19.21875 -10.15625 L 16.828125 -10.65625 C 15.273438 -10.96875 14.078125 -10.796875 13.234375 -10.140625 C 12.390625 -9.484375 11.804688 -8.367188 11.484375 -6.796875 L 9.6875 1.984375 L 2.25 0.453125 L 6.296875 -19.296875 L 12.390625 -18.046875 L 12.25 -14.9375 C 12.9375 -15.988281 13.828125 -16.707031 14.921875 -17.09375 C 16.015625 -17.488281 17.171875 -17.5625 18.390625 -17.3125 Z M 18.390625 -17.3125 "/></g></g></g><g fill="#ffffff" fill-opacity="1"><g transform="translate(151.122402, 269.644796)"><g><path d="M 7.578125 0.9375 L 2.453125 -20 L 10.5625 -19 L 12.703125 -6.078125 L 12.96875 -6.046875 L 18.171875 -18.078125 L 25.609375 -17.15625 L 15.5 1.90625 Z M 7.578125 0.9375 "/></g></g></g><g fill="#ffffff" fill-opacity="1"><g transform="translate(175.165921, 272.371629)"><g><path d="M 3.703125 -22.359375 L 3.953125 -27.515625 L 11.53125 -27.125 L 11.28125 -21.96875 Z M 2.5625 0.125 L 3.578125 -20 L 11.15625 -19.609375 L 10.140625 0.515625 Z M 2.5625 0.125 "/></g></g></g><g fill="#ffffff" fill-opacity="1"><g transform="translate(188.743396, 273.216589)"><g><path d="M 11.4375 -20.859375 C 14.132812 -20.910156 16.429688 -20.425781 18.328125 -19.40625 C 20.222656 -18.394531 21.191406 -16.785156 21.234375 -14.578125 L 14.171875 -14.421875 C 14.160156 -15.160156 13.816406 -15.675781 13.140625 -15.96875 C 12.671875 -16.21875 12.09375 -16.335938 11.40625 -16.328125 C 9.582031 -16.285156 8.679688 -15.828125 8.703125 -14.953125 C 8.710938 -14.472656 9.035156 -14.140625 9.671875 -13.953125 C 10.316406 -13.765625 11.363281 -13.570312 12.8125 -13.375 C 14.601562 -13.15625 16.097656 -12.882812 17.296875 -12.5625 C 18.503906 -12.25 19.5625 -11.660156 20.46875 -10.796875 C 21.382812 -9.941406 21.859375 -8.726562 21.890625 -7.15625 C 21.941406 -4.582031 21.019531 -2.726562 19.125 -1.59375 C 17.226562 -0.457031 14.726562 0.140625 11.625 0.203125 C 9.84375 0.242188 8.15625 0.0351562 6.5625 -0.421875 C 4.976562 -0.890625 3.675781 -1.632812 2.65625 -2.65625 C 1.632812 -3.675781 1.109375 -4.988281 1.078125 -6.59375 L 8.140625 -6.734375 L 8.140625 -6.578125 C 8.191406 -5.710938 8.570312 -5.113281 9.28125 -4.78125 C 9.988281 -4.457031 10.738281 -4.304688 11.53125 -4.328125 C 13.632812 -4.367188 14.675781 -4.890625 14.65625 -5.890625 C 14.632812 -6.398438 14.289062 -6.757812 13.625 -6.96875 C 12.96875 -7.1875 11.882812 -7.40625 10.375 -7.625 C 8.5625 -7.894531 7.070312 -8.195312 5.90625 -8.53125 C 4.75 -8.863281 3.726562 -9.441406 2.84375 -10.265625 C 1.957031 -11.097656 1.492188 -12.28125 1.453125 -13.8125 C 1.410156 -16.28125 2.3125 -18.054688 4.15625 -19.140625 C 6 -20.222656 8.425781 -20.796875 11.4375 -20.859375 Z M 11.4375 -20.859375 "/></g></g></g><g fill="#ffffff" fill-opacity="1"><g transform="translate(213.266468, 272.694786)"><g><path d="M 10.203125 -21.96875 C 13.867188 -22.394531 16.769531 -21.863281 18.90625 -20.375 C 21.039062 -18.882812 22.316406 -16.375 22.734375 -12.84375 L 22.890625 -11.546875 L 7.875 -9.765625 C 8.039062 -8.328125 8.488281 -7.28125 9.21875 -6.625 C 9.957031 -5.96875 11.019531 -5.722656 12.40625 -5.890625 C 13.664062 -6.035156 14.5625 -6.410156 15.09375 -7.015625 C 15.632812 -7.617188 15.851562 -8.363281 15.75 -9.25 L 23.0625 -10.109375 C 23.34375 -7.679688 22.640625 -5.675781 20.953125 -4.09375 C 19.273438 -2.507812 16.664062 -1.507812 13.125 -1.09375 C 9.414062 -0.65625 6.429688 -1.175781 4.171875 -2.65625 C 1.921875 -4.144531 0.585938 -6.648438 0.171875 -10.171875 C -0.234375 -13.597656 0.457031 -16.316406 2.25 -18.328125 C 4.039062 -20.335938 6.691406 -21.550781 10.203125 -21.96875 Z M 11.0625 -17.1875 C 8.6875 -16.90625 7.5 -15.628906 7.5 -13.359375 L 14.84375 -14.21875 C 14.71875 -15.25 14.320312 -16.03125 13.65625 -16.5625 C 13 -17.101562 12.132812 -17.3125 11.0625 -17.1875 Z M 11.0625 -17.1875 "/></g></g></g><g fill="#ffffff" fill-opacity="1"><g transform="translate(239.549834, 269.359071)"><g><path d="M 10.109375 -23.15625 C 10.679688 -23.269531 11.203125 -23.304688 11.671875 -23.265625 C 12.148438 -23.222656 12.394531 -23.1875 12.40625 -23.15625 L 13.6875 -16.90625 L 11.296875 -16.40625 C 9.742188 -16.09375 8.707031 -15.46875 8.1875 -14.53125 C 7.664062 -13.59375 7.566406 -12.335938 7.890625 -10.765625 L 9.6875 -1.984375 L 2.25 -0.453125 L -1.796875 -20.203125 L 4.296875 -21.453125 L 5.40625 -18.5625 C 5.613281 -19.800781 6.144531 -20.8125 7 -21.59375 C 7.851562 -22.382812 8.890625 -22.90625 10.109375 -23.15625 Z M 10.109375 -23.15625 "/></g></g></g><g fill="#ffffff" fill-opacity="1"><g transform="translate(257.145591, 265.845167)"><g><path d="M 7.34375 -2.125 L -5.609375 -19.359375 L 2.234375 -21.640625 L 9.296875 -10.59375 L 9.546875 -10.671875 L 9.609375 -23.765625 L 16.796875 -25.84375 L 15 -4.34375 Z M 7.34375 -2.125 "/></g></g></g><g fill="#ffffff" fill-opacity="1"><g transform="translate(280.703717, 259.013363)"><g><path d="M 4.1875 -23.84375 C 7.613281 -25.207031 10.550781 -25.445312 13 -24.5625 C 15.457031 -23.675781 17.34375 -21.578125 18.65625 -18.265625 L 19.140625 -17.0625 L 5.078125 -11.46875 C 5.617188 -10.125 6.328125 -9.226562 7.203125 -8.78125 C 8.078125 -8.332031 9.164062 -8.367188 10.46875 -8.890625 C 11.644531 -9.359375 12.410156 -9.953125 12.765625 -10.671875 C 13.128906 -11.398438 13.148438 -12.175781 12.828125 -13 L 19.6875 -15.71875 C 20.582031 -13.445312 20.421875 -11.328125 19.203125 -9.359375 C 17.984375 -7.398438 15.71875 -5.765625 12.40625 -4.453125 C 8.9375 -3.066406 5.921875 -2.800781 3.359375 -3.65625 C 0.796875 -4.507812 -1.140625 -6.582031 -2.453125 -9.875 C -3.722656 -13.09375 -3.753906 -15.894531 -2.546875 -18.28125 C -1.347656 -20.675781 0.894531 -22.53125 4.1875 -23.84375 Z M 6.265625 -19.453125 C 4.035156 -18.566406 3.210938 -17.023438 3.796875 -14.828125 L 10.671875 -17.5625 C 10.285156 -18.53125 9.703125 -19.1875 8.921875 -19.53125 C 8.148438 -19.875 7.265625 -19.847656 6.265625 -19.453125 Z M 6.265625 -19.453125 "/></g></g></g></svg>